0
SECTION
2
HEADER
9
$INSUNITS
70
1
9
$ACADVER
1
AC1014
9
$HANDSEED
5
FFFF
0
ENDSEC
0
SECTION
2
TABLES
0
TABLE
2
VPORT
5
8
100
AcDbSymbolTable
0
ENDTAB
0
TABLE
2
LTYPE
5
5
100
AcDbSymbolTable
0
LTYPE
5
14
100
AcDbSymbolTableRecord
100
AcDbLinetypeTableRecord
2
BYBLOCK
70
0
0
LTYPE
5
15
100
AcDbSymbolTableRecord
100
AcDbLinetypeTableRecord
2
BYLAYER
70
0
0
ENDTAB
0
TABLE
2
LAYER
5
2
100
AcDbSymbolTable
70
2
0
LAYER
5
50
100
AcDbSymbolTableRecord
100
AcDbLayerTableRecord
2
0
70
0
6
CONTINUOUS
0
ENDTAB
0
TABLE
2
STYLE
5
3
100
AcDbSymbolTable
70
1
0
STYLE
5
11
100
AcDbSymbolTableRecord
100
AcDbTextStyleTableRecord
2
STANDARD
70
0
0
ENDTAB
0
TABLE
2
VIEW
5
6
100
AcDbSymbolTable
70
0
0
ENDTAB
0
TABLE
2
UCS
5
7
100
AcDbSymbolTable
70
0
0
ENDTAB
0
TABLE
2
APPID
5
9
100
AcDbSymbolTable
70
2
0
APPID
5
12
100
AcDbSymbolTableRecord
100
AcDbRegAppTableRecord
2
ACAD
70
0
0
ENDTAB
0
TABLE
2
DIMSTYLE
5
A
100
AcDbSymbolTable
70
1
0
ENDTAB
0
TABLE
2
BLOCK_RECORD
5
1
100
AcDbSymbolTable
70
1
0
BLOCK_RECORD
5
1F
100
AcDbSymbolTableRecord
100
AcDbBlockTableRecord
2
*MODEL_SPACE
0
BLOCK_RECORD
5
1B
100
AcDbSymbolTableRecord
100
AcDbBlockTableRecord
2
*PAPER_SPACE
0
ENDTAB
0
ENDSEC
0
SECTION
2
BLOCKS
0
BLOCK
5
20
100
AcDbEntity
100
AcDbBlockBegin
2
*MODEL_SPACE
0
ENDBLK
5
21
100
AcDbEntity
100
AcDbBlockEnd
0
BLOCK
5
1C
100
AcDbEntity
100
AcDbBlockBegin
2
*PAPER_SPACE
0
ENDBLK
5
1D
100
AcDbEntity
100
AcDbBlockEnd
0
ENDSEC
0
SECTION
2
ENTITIES
0
CIRCLE
5
100
100
AcDbEntity
8
0
100
AcDbCircle
10
-1.875
20
0.53748031496062998
30
0
40
0.064960629921257756
0
CIRCLE
5
101
100
AcDbEntity
8
0
100
AcDbCircle
10
0.61023622047244086
20
0.61023622047244086
30
0
40
0.064960629921259852
0
CIRCLE
5
102
100
AcDbEntity
8
0
100
AcDbCircle
10
-1.875
20
-0.53748031496062998
30
0
40
0.064960629921257756
0
CIRCLE
5
103
100
AcDbEntity
8
0
100
AcDbCircle
10
-1.33751968503937
20
0
30
0
40
0.064960629921257756
0
CIRCLE
5
104
100
AcDbEntity
8
0
100
AcDbCircle
10
-0.61023622047244097
20
0.61023622047244086
30
0
40
0.064960629921259852
0
CIRCLE
5
105
100
AcDbEntity
8
0
100
AcDbCircle
10
-2.41248031496063
20
6.5822354732124676e-17
30
0
40
0.064960629921257756
0
CIRCLE
5
106
100
AcDbEntity
8
0
100
AcDbCircle
10
0
20
0
30
0
40
0.6038201732277636
0
CIRCLE
5
107
100
AcDbEntity
8
0
100
AcDbCircle
10
0.61023622047244086
20
-0.61023622047244086
30
0
40
0.064960629921259852
0
CIRCLE
5
108
100
AcDbEntity
8
0
100
AcDbCircle
10
-0.61023622047244097
20
-0.61023622047244086
30
0
40
0.064960629921259852
0
CIRCLE
5
109
100
AcDbEntity
8
0
100
AcDbCircle
10
-1.875
20
0
30
0
40
0.12401574803148502
0
LWPOLYLINE
5
110
100
AcDbEntity
8
0
100
AcDbPolyline
90
52
70
1
43
0.0
10
0.67402795789651804
20
2.4949999999999997
10
0.67416666666666625
20
2.2549999999999994
10
1.0549999999999997
20
2.2549999999999994
10
1.054999999999999
20
1.879166666666666
10
1.2949999999999999
20
1.8791666666666658
10
1.2950000000000006
20
1.1274999999999993
10
1.0549999999999977
20
1.1274999999999997
10
1.0549999999999993
20
0.37583333333333285
10
1.2949999999999999
20
0.3758333333333328
10
1.2950000000000006
20
-0.37583333333333363
10
1.0549999999999977
20
-0.37583333333333313
10
1.0549999999999993
20
-1.1275000000000002
10
1.2949999999999999
20
-1.1275000000000002
10
1.2950000000000006
20
-1.8791666666666669
10
1.0549999999999977
20
-1.879166666666666
10
1.0549999999999977
20
-2.2549999999999994
10
0.67416666666666658
20
-2.2549999999999994
10
0.67402795789651937
20
-2.4949999999999997
10
-0.067638708770147257
20
-2.4949999999999997
10
-0.072595869674107236
20
-2.2550000000000003
10
-0.82916666666666627
20
-2.2549999999999994
10
-0.8293053754368136
20
-2.4949999999999997
10
-1.5709720421034798
20
-2.4949999999999997
10
-1.5759292030074405
20
-2.2550000000000003
10
-2.3324999999999991
20
-2.2549999999999994
10
-2.3326387087701468
20
-2.4949999999999997
10
-3.074305375436813
20
-2.4949999999999997
10
-3.0792625363407735
20
-2.2550000000000003
10
-3.454999999999997
20
-2.2549999999999994
10
-3.4549999999999979
20
-1.8791666666666664
10
-3.6949999999999998
20
-1.8791666666666671
10
-3.6949999999999994
20
-1.1275000000000008
10
-3.4549999999999983
20
-1.1275000000000004
10
-3.4549999999999979
20
-0.37583333333333341
10
-3.6949999999999998
20
-0.37583333333333396
10
-3.6949999999999994
20
0.37583333333333213
10
-3.4549999999999983
20
0.3758333333333328
10
-3.4549999999999979
20
1.1274999999999997
10
-3.6949999999999998
20
1.1274999999999991
10
-3.6949999999999994
20
1.8791666666666653
10
-3.4549999999999983
20
1.8791666666666658
10
-3.4549999999999992
20
2.254999999999999
10
-3.0792625363407735
20
2.2550000000000003
10
-3.0743053754368135
20
2.4949999999999997
10
-2.3326387087701486
20
2.4949999999999997
10
-2.3325
20
2.2549999999999994
10
-1.5759292030074405
20
2.2550000000000003
10
-1.5709720421034798
20
2.4949999999999997
10
-0.82930537543681537
20
2.4949999999999997
10
-0.82916666666666672
20
2.2549999999999994
10
-0.072595869674107236
20
2.2550000000000003
10
-0.067638708770146896
20
2.4949999999999997
0
CIRCLE
5
111
100
AcDbEntity
8
0
100
AcDbCircle
10
-1.875
20
0.53748031496062998
30
0
40
0.064960629921257756
0
CIRCLE
5
112
100
AcDbEntity
8
0
100
AcDbCircle
10
0.61023622047244086
20
0.61023622047244086
30
0
40
0.064960629921259852
0
CIRCLE
5
113
100
AcDbEntity
8
0
100
AcDbCircle
10
-1.875
20
-0.53748031496062998
30
0
40
0.064960629921257756
0
CIRCLE
5
114
100
AcDbEntity
8
0
100
AcDbCircle
10
-1.33751968503937
20
0
30
0
40
0.064960629921257756
0
CIRCLE
5
115
100
AcDbEntity
8
0
100
AcDbCircle
10
-0.61023622047244097
20
0.61023622047244086
30
0
40
0.064960629921259852
0
CIRCLE
5
116
100
AcDbEntity
8
0
100
AcDbCircle
10
-2.41248031496063
20
6.5822354732124676e-17
30
0
40
0.064960629921257756
0
CIRCLE
5
117
100
AcDbEntity
8
0
100
AcDbCircle
10
0
20
0
30
0
40
0.6038201732277636
0
CIRCLE
5
118
100
AcDbEntity
8
0
100
AcDbCircle
10
0.61023622047244086
20
-0.61023622047244086
30
0
40
0.064960629921259852
0
CIRCLE
5
119
100
AcDbEntity
8
0
100
AcDbCircle
10
-0.61023622047244097
20
-0.61023622047244086
30
0
40
0.064960629921259852
0
CIRCLE
5
120
100
AcDbEntity
8
0
100
AcDbCircle
10
-1.875
20
0
30
0
40
0.12401574803148502
0
LWPOLYLINE
5
121
100
AcDbEntity
8
0
100
AcDbPolyline
90
52
70
1
43
0.0
10
0.67416666666666625
20
2.2549999999999994
10
0.67402795789651804
20
2.4949999999999992
10
-0.067638708770146896
20
2.4949999999999992
10
-0.072595869674107236
20
2.2549999999999999
10
-0.82916666666666672
20
2.2549999999999994
10
-0.82930537543681537
20
2.4949999999999992
10
-1.5709720421034798
20
2.4949999999999992
10
-1.5759292030074405
20
2.2549999999999999
10
-2.3325
20
2.2549999999999994
10
-2.3326387087701486
20
2.4949999999999992
10
-3.0743053754368135
20
2.4949999999999992
10
-3.0792625363407735
20
2.2549999999999999
10
-3.4549999999999992
20
2.2549999999999986
10
-3.4549999999999983
20
1.8791666666666658
10
-3.6949999999999994
20
1.8791666666666653
10
-3.6949999999999998
20
1.1274999999999991
10
-3.4549999999999979
20
1.1274999999999997
10
-3.4549999999999983
20
0.3758333333333328
10
-3.6949999999999994
20
0.37583333333333219
10
-3.6949999999999998
20
-0.37583333333333391
10
-3.4549999999999979
20
-0.37583333333333341
10
-3.4549999999999983
20
-1.1275000000000002
10
-3.6949999999999994
20
-1.1275000000000008
10
-3.6949999999999998
20
-1.8791666666666675
10
-3.4549999999999979
20
-1.8791666666666669
10
-3.454999999999997
20
-2.2549999999999999
10
-3.0792625363407735
20
-2.2550000000000008
10
-3.074305375436813
20
-2.4950000000000001
10
-2.3326387087701468
20
-2.4950000000000001
10
-2.3324999999999991
20
-2.2549999999999999
10
-1.5759292030074405
20
-2.2550000000000008
10
-1.5709720421034798
20
-2.4950000000000001
10
-0.8293053754368136
20
-2.4950000000000001
10
-0.82916666666666627
20
-2.2549999999999999
10
-0.072595869674107236
20
-2.2550000000000008
10
-0.067638708770147257
20
-2.4950000000000001
10
0.67402795789651937
20
-2.4950000000000001
10
0.67416666666666658
20
-2.2549999999999999
10
1.0549999999999977
20
-2.2549999999999994
10
1.0549999999999977
20
-1.879166666666666
10
1.2950000000000006
20
-1.8791666666666669
10
1.2949999999999999
20
-1.1275000000000002
10
1.0549999999999993
20
-1.1275000000000002
10
1.0549999999999977
20
-0.37583333333333302
10
1.2950000000000006
20
-0.37583333333333363
10
1.2949999999999999
20
0.3758333333333328
10
1.0549999999999993
20
0.37583333333333285
10
1.0549999999999977
20
1.1274999999999997
10
1.2950000000000006
20
1.1274999999999993
10
1.2949999999999999
20
1.8791666666666658
10
1.054999999999999
20
1.879166666666666
10
1.0549999999999997
20
2.2549999999999994
0
ENDSEC
0
SECTION
2
OBJECTS
0
DICTIONARY
5
C
100
AcDbDictionary
3
ACAD_GROUP
350
D
3
ACAD_MLINESTYLE
350
17
0
DICTIONARY
5
D
100
AcDbDictionary
0
DICTIONARY
5
1A
330
C
100
AcDbDictionary
0
DICTIONARY
5
17
100
AcDbDictionary
0
ENDSEC
0
EOF
