0
SECTION
2
HEADER
9
$INSUNITS
70
1
9
$ACADVER
1
AC1014
9
$HANDSEED
5
FFFF
0
ENDSEC
0
SECTION
2
TABLES
0
TABLE
2
VPORT
5
8
100
AcDbSymbolTable
0
ENDTAB
0
TABLE
2
LTYPE
5
5
100
AcDbSymbolTable
0
LTYPE
5
14
100
AcDbSymbolTableRecord
100
AcDbLinetypeTableRecord
2
BYBLOCK
70
0
0
LTYPE
5
15
100
AcDbSymbolTableRecord
100
AcDbLinetypeTableRecord
2
BYLAYER
70
0
0
ENDTAB
0
TABLE
2
LAYER
5
2
100
AcDbSymbolTable
70
2
0
LAYER
5
50
100
AcDbSymbolTableRecord
100
AcDbLayerTableRecord
2
0
70
0
6
CONTINUOUS
0
ENDTAB
0
TABLE
2
STYLE
5
3
100
AcDbSymbolTable
70
1
0
STYLE
5
11
100
AcDbSymbolTableRecord
100
AcDbTextStyleTableRecord
2
STANDARD
70
0
0
ENDTAB
0
TABLE
2
VIEW
5
6
100
AcDbSymbolTable
70
0
0
ENDTAB
0
TABLE
2
UCS
5
7
100
AcDbSymbolTable
70
0
0
ENDTAB
0
TABLE
2
APPID
5
9
100
AcDbSymbolTable
70
2
0
APPID
5
12
100
AcDbSymbolTableRecord
100
AcDbRegAppTableRecord
2
ACAD
70
0
0
ENDTAB
0
TABLE
2
DIMSTYLE
5
A
100
AcDbSymbolTable
70
1
0
ENDTAB
0
TABLE
2
BLOCK_RECORD
5
1
100
AcDbSymbolTable
70
1
0
BLOCK_RECORD
5
1F
100
AcDbSymbolTableRecord
100
AcDbBlockTableRecord
2
*MODEL_SPACE
0
BLOCK_RECORD
5
1B
100
AcDbSymbolTableRecord
100
AcDbBlockTableRecord
2
*PAPER_SPACE
0
ENDTAB
0
ENDSEC
0
SECTION
2
BLOCKS
0
BLOCK
5
20
100
AcDbEntity
100
AcDbBlockBegin
2
*MODEL_SPACE
0
ENDBLK
5
21
100
AcDbEntity
100
AcDbBlockEnd
0
BLOCK
5
1C
100
AcDbEntity
100
AcDbBlockBegin
2
*PAPER_SPACE
0
ENDBLK
5
1D
100
AcDbEntity
100
AcDbBlockEnd
0
ENDSEC
0
SECTION
2
ENTITIES
0
LWPOLYLINE
5
100
100
AcDbEntity
8
0
100
AcDbPolyline
90
4
70
1
43
0.0
10
-0.67916666666666126
20
1.7804330708661305
10
-0.67916666666666126
20
1.5304330708661307
10
0.072500000000002021
20
1.5304330708661307
10
0.072500000000002021
20
1.7804330708661305
0
CIRCLE
5
101
100
AcDbEntity
8
0
100
AcDbCircle
10
1.9516666666666684
20
-0.11999999999999866
30
0
40
0.046999999999999834
0
LWPOLYLINE
5
102
100
AcDbEntity
8
0
100
AcDbPolyline
90
4
70
1
43
0.0
10
2.3275000000000046
20
1.7804330708661305
10
2.3275000000000046
20
1.5304330708661307
10
3.0791666666666679
20
1.5304330708661307
10
3.0791666666666679
20
1.7804330708661305
0
CIRCLE
5
103
100
AcDbEntity
8
0
100
AcDbCircle
10
-1.1749999999999909
20
0.62416666666667997
30
0
40
0.047000000000000014
0
LWPOLYLINE
5
104
100
AcDbEntity
8
0
100
AcDbPolyline
90
8
70
1
43
0.0
10
-0.59999999999996423
20
2.9899999999999776
10
-0.59999999999994291
20
2.5754330708660991
42
0.41421356237306445
10
-0.29999999999994281
20
2.2754330708661303
10
2.6999999999999993
20
2.2754330708661308
42
0.41421356237309509
10
2.9999999999999996
20
2.5754330708661306
10
2.9999999999999991
20
2.9899999999999998
42
0.41421356237309509
10
2.6999999999999993
20
3.29
10
-0.29999999999996441
20
3.29
42
0.41421356237311657
0
CIRCLE
5
105
100
AcDbEntity
8
0
100
AcDbCircle
10
0.4483333333333599
20
-0.12000000000000285
30
0
40
0.047000000000000014
0
CIRCLE
5
106
100
AcDbEntity
8
0
100
AcDbCircle
10
0.44833333333336034
20
3.8650000000000024
30
0
40
0.047000000000000014
0
CIRCLE
5
107
100
AcDbEntity
8
0
100
AcDbCircle
10
3.5750000000000002
20
3.120833333333334
30
0
40
0.046999999999999834
0
CIRCLE
5
108
100
AcDbEntity
8
0
100
AcDbCircle
10
-1.1749999999999765
20
3.1208333333333478
30
0
40
0.047000000000000014
0
CIRCLE
5
109
100
AcDbEntity
8
0
100
AcDbCircle
10
3.5750000000000002
20
0.62416666666666598
30
0
40
0.046999999999999834
0
LWPOLYLINE
5
110
100
AcDbEntity
8
0
100
AcDbPolyline
90
4
70
1
43
0.0
10
0.8241666666666716
20
1.7804330708661305
10
0.8241666666666716
20
1.5304330708661307
10
1.575833333333335
20
1.5304330708661307
10
1.575833333333335
20
1.7804330708661305
0
CIRCLE
5
111
100
AcDbEntity
8
0
100
AcDbCircle
10
1.9516666666666684
20
3.8649999999999984
30
0
40
0.046999999999999834
0
LWPOLYLINE
5
112
100
AcDbEntity
8
0
100
AcDbPolyline
90
52
70
1
43
0.0
10
3.0791666666666679
20
3.9849999999999977
10
3.4550000000000014
20
3.9849999999999999
10
3.4549999999999956
20
3.4279166666666669
10
3.6950000000000016
20
3.4279166666666669
10
3.6950000000000016
20
2.8137500000000002
10
3.4550000000000014
20
2.8137499999999998
10
3.4549999999999956
20
2.1795833333333334
10
3.6950000000000016
20
2.1795833333333334
10
3.6950000000000016
20
1.5654166666666667
10
3.4550000000000014
20
1.5654166666666665
10
3.4549999999999956
20
0.93125000000000002
10
3.6950000000000016
20
0.93125000000000002
10
3.6950000000000016
20
0.31708333333333344
10
3.4550000000000014
20
0.31708333333333305
10
3.4550000000000014
20
-0.24000000000000013
10
3.0791666666666679
20
-0.23999999999999802
10
3.0791666666666679
20
2.0980592591341539e-15
10
2.3275000000000015
20
3.4967654318902565e-15
10
2.3275000000000015
20
-0.24000000000000082
10
1.5758333333333352
20
-0.23999999999999802
10
1.5758333333333352
20
2.0980592591341539e-15
10
0.8241666666666686
20
3.4967654318902565e-15
10
0.82416666666666827
20
-0.24000000000000082
10
0.072500000000002021
20
-0.23999999999999802
10
0.072500000000002021
20
2.0980592591341539e-15
10
-0.67916666666666436
20
3.4967654318902565e-15
10
-0.67916666666666481
20
-0.24000000000000082
10
-1.0549999999999979
20
-0.23999999999998683
10
-1.0549999999999944
20
0.31708333333334637
10
-1.2949999999999946
20
0.31708333333334776
10
-1.2949999999999904
20
0.93125000000001468
10
-1.0549999999999846
20
0.93125000000001334
10
-1.0549999999999944
20
1.5654166666666798
10
-1.2949999999999946
20
1.5654166666666813
10
-1.2949999999999904
20
2.1795833333333481
10
-1.0549999999999846
20
2.1795833333333468
10
-1.0549999999999944
20
2.8137500000000131
10
-1.2949999999999946
20
2.8137500000000144
10
-1.2949999999999904
20
3.4279166666666816
10
-1.0549999999999846
20
3.4279166666666803
10
-1.0549999999999853
20
3.9850000000000012
10
-0.67916666666666481
20
3.9849999999999999
10
-0.67916666666666403
20
3.7449999999999961
10
0.072500000000001674
20
3.7449999999999974
10
0.072500000000001674
20
3.9849999999999977
10
0.82416666666666805
20
3.9849999999999999
10
0.82416666666666882
20
3.7449999999999961
10
1.575833333333335
20
3.7449999999999974
10
1.575833333333335
20
3.9849999999999977
10
2.3275000000000015
20
3.9849999999999999
10
2.3275000000000015
20
3.7449999999999961
10
3.0791666666666679
20
3.7449999999999974
0
LWPOLYLINE
5
113
100
AcDbEntity
8
0
100
AcDbPolyline
90
4
70
1
43
0.0
10
-0.67916666666666126
20
1.5304330708661307
10
-0.67916666666666126
20
1.7804330708661305
10
0.072500000000002021
20
1.7804330708661305
10
0.072500000000002021
20
1.5304330708661307
0
CIRCLE
5
114
100
AcDbEntity
8
0
100
AcDbCircle
10
1.9516666666666684
20
-0.11999999999999866
30
0
40
0.046999999999999834
0
LWPOLYLINE
5
115
100
AcDbEntity
8
0
100
AcDbPolyline
90
4
70
1
43
0.0
10
2.3275000000000046
20
1.5304330708661307
10
2.3275000000000046
20
1.7804330708661305
10
3.0791666666666679
20
1.7804330708661305
10
3.0791666666666679
20
1.5304330708661307
0
CIRCLE
5
116
100
AcDbEntity
8
0
100
AcDbCircle
10
-1.1749999999999909
20
0.62416666666667997
30
0
40
0.047000000000000014
0
LWPOLYLINE
5
117
100
AcDbEntity
8
0
100
AcDbPolyline
90
8
70
1
43
0.0
10
-0.59999999999994291
20
2.5754330708660991
10
-0.59999999999996434
20
2.9899999999999776
42
-0.41421356237311763
10
-0.29999999999996446
20
3.29
10
2.6999999999999993
20
3.29
42
-0.41421356237309537
10
2.9999999999999996
20
2.9899999999999998
10
2.9999999999999996
20
2.5754330708661306
42
-0.4142135623730957
10
2.6999999999999993
20
2.2754330708661303
10
-0.2999999999999427
20
2.2754330708661303
42
-0.41421356237306434
0
CIRCLE
5
118
100
AcDbEntity
8
0
100
AcDbCircle
10
0.4483333333333599
20
-0.12000000000000285
30
0
40
0.047000000000000014
0
CIRCLE
5
119
100
AcDbEntity
8
0
100
AcDbCircle
10
0.44833333333336034
20
3.8650000000000024
30
0
40
0.047000000000000014
0
CIRCLE
5
120
100
AcDbEntity
8
0
100
AcDbCircle
10
3.5750000000000002
20
3.120833333333334
30
0
40
0.046999999999999834
0
CIRCLE
5
121
100
AcDbEntity
8
0
100
AcDbCircle
10
-1.1749999999999765
20
3.1208333333333478
30
0
40
0.047000000000000014
0
CIRCLE
5
122
100
AcDbEntity
8
0
100
AcDbCircle
10
3.5750000000000002
20
0.62416666666666598
30
0
40
0.046999999999999834
0
LWPOLYLINE
5
123
100
AcDbEntity
8
0
100
AcDbPolyline
90
4
70
1
43
0.0
10
0.8241666666666716
20
1.5304330708661307
10
0.8241666666666716
20
1.7804330708661305
10
1.575833333333335
20
1.7804330708661305
10
1.575833333333335
20
1.5304330708661307
0
CIRCLE
5
124
100
AcDbEntity
8
0
100
AcDbCircle
10
1.9516666666666684
20
3.8649999999999984
30
0
40
0.046999999999999834
0
LWPOLYLINE
5
125
100
AcDbEntity
8
0
100
AcDbPolyline
90
52
70
1
43
0.0
10
3.4550000000000014
20
3.9849999999999999
10
3.0791666666666679
20
3.9849999999999977
10
3.0791666666666679
20
3.7449999999999974
10
2.3275000000000015
20
3.7449999999999961
10
2.3275000000000015
20
3.9849999999999999
10
1.575833333333335
20
3.9849999999999977
10
1.575833333333335
20
3.7449999999999974
10
0.82416666666666882
20
3.7449999999999961
10
0.82416666666666805
20
3.9849999999999999
10
0.072500000000001674
20
3.9849999999999977
10
0.072500000000001674
20
3.7449999999999974
10
-0.67916666666666403
20
3.7449999999999961
10
-0.67916666666666481
20
3.9849999999999999
10
-1.0549999999999853
20
3.9850000000000012
10
-1.0549999999999846
20
3.4279166666666803
10
-1.2949999999999904
20
3.4279166666666816
10
-1.2949999999999946
20
2.8137500000000144
10
-1.0549999999999944
20
2.8137500000000131
10
-1.0549999999999846
20
2.1795833333333468
10
-1.2949999999999904
20
2.1795833333333481
10
-1.2949999999999946
20
1.5654166666666816
10
-1.0549999999999944
20
1.5654166666666798
10
-1.0549999999999846
20
0.93125000000001334
10
-1.2949999999999904
20
0.93125000000001468
10
-1.2949999999999946
20
0.31708333333334776
10
-1.0549999999999944
20
0.31708333333334637
10
-1.0549999999999982
20
-0.23999999999998683
10
-0.67916666666666481
20
-0.24000000000000082
10
-0.67916666666666436
20
3.4967654318902565e-15
10
0.072500000000002021
20
2.0980592591341539e-15
10
0.072500000000002021
20
-0.23999999999999802
10
0.82416666666666827
20
-0.24000000000000082
10
0.8241666666666686
20
3.4967654318902565e-15
10
1.5758333333333352
20
2.0980592591341539e-15
10
1.5758333333333352
20
-0.23999999999999802
10
2.3275000000000015
20
-0.24000000000000082
10
2.3275000000000015
20
3.4967654318902565e-15
10
3.0791666666666679
20
2.0980592591341539e-15
10
3.0791666666666679
20
-0.23999999999999802
10
3.4550000000000014
20
-0.24000000000000013
10
3.4550000000000014
20
0.31708333333333305
10
3.6950000000000016
20
0.31708333333333344
10
3.6950000000000016
20
0.93125000000000002
10
3.4549999999999956
20
0.93125000000000002
10
3.4550000000000014
20
1.5654166666666665
10
3.6950000000000016
20
1.5654166666666669
10
3.6950000000000016
20
2.1795833333333334
10
3.4549999999999956
20
2.1795833333333334
10
3.4550000000000014
20
2.8137499999999998
10
3.6950000000000016
20
2.8137500000000002
10
3.6950000000000016
20
3.4279166666666669
10
3.4549999999999956
20
3.4279166666666669
0
CIRCLE
5
126
100
AcDbEntity
8
0
100
AcDbCircle
10
0.44833333333334469
20
1.6554330708661349
30
0
40
0.047000000000000014
0
CIRCLE
5
127
100
AcDbEntity
8
0
100
AcDbCircle
10
1.9516666666666698
20
1.6554330708661307
30
0
40
0.046999999999999834
0
CIRCLE
5
128
100
AcDbEntity
8
0
100
AcDbCircle
10
0.44833333333334469
20
1.6554330708661349
30
0
40
0.047000000000000014
0
CIRCLE
5
129
100
AcDbEntity
8
0
100
AcDbCircle
10
1.9516666666666698
20
1.6554330708661307
30
0
40
0.046999999999999834
0
ENDSEC
0
SECTION
2
OBJECTS
0
DICTIONARY
5
C
100
AcDbDictionary
3
ACAD_GROUP
350
D
3
ACAD_MLINESTYLE
350
17
0
DICTIONARY
5
D
100
AcDbDictionary
0
DICTIONARY
5
1A
330
C
100
AcDbDictionary
0
DICTIONARY
5
17
100
AcDbDictionary
0
ENDSEC
0
EOF
