0
SECTION
2
HEADER
9
$INSUNITS
70
1
9
$ACADVER
1
AC1014
9
$HANDSEED
5
FFFF
0
ENDSEC
0
SECTION
2
TABLES
0
TABLE
2
VPORT
5
8
100
AcDbSymbolTable
0
ENDTAB
0
TABLE
2
LTYPE
5
5
100
AcDbSymbolTable
0
LTYPE
5
14
100
AcDbSymbolTableRecord
100
AcDbLinetypeTableRecord
2
BYBLOCK
70
0
0
LTYPE
5
15
100
AcDbSymbolTableRecord
100
AcDbLinetypeTableRecord
2
BYLAYER
70
0
0
ENDTAB
0
TABLE
2
LAYER
5
2
100
AcDbSymbolTable
70
2
0
LAYER
5
50
100
AcDbSymbolTableRecord
100
AcDbLayerTableRecord
2
0
70
0
6
CONTINUOUS
0
ENDTAB
0
TABLE
2
STYLE
5
3
100
AcDbSymbolTable
70
1
0
STYLE
5
11
100
AcDbSymbolTableRecord
100
AcDbTextStyleTableRecord
2
STANDARD
70
0
0
ENDTAB
0
TABLE
2
VIEW
5
6
100
AcDbSymbolTable
70
0
0
ENDTAB
0
TABLE
2
UCS
5
7
100
AcDbSymbolTable
70
0
0
ENDTAB
0
TABLE
2
APPID
5
9
100
AcDbSymbolTable
70
2
0
APPID
5
12
100
AcDbSymbolTableRecord
100
AcDbRegAppTableRecord
2
ACAD
70
0
0
ENDTAB
0
TABLE
2
DIMSTYLE
5
A
100
AcDbSymbolTable
70
1
0
ENDTAB
0
TABLE
2
BLOCK_RECORD
5
1
100
AcDbSymbolTable
70
1
0
BLOCK_RECORD
5
1F
100
AcDbSymbolTableRecord
100
AcDbBlockTableRecord
2
*MODEL_SPACE
0
BLOCK_RECORD
5
1B
100
AcDbSymbolTableRecord
100
AcDbBlockTableRecord
2
*PAPER_SPACE
0
ENDTAB
0
ENDSEC
0
SECTION
2
BLOCKS
0
BLOCK
5
20
100
AcDbEntity
100
AcDbBlockBegin
2
*MODEL_SPACE
0
ENDBLK
5
21
100
AcDbEntity
100
AcDbBlockEnd
0
BLOCK
5
1C
100
AcDbEntity
100
AcDbBlockBegin
2
*PAPER_SPACE
0
ENDBLK
5
1D
100
AcDbEntity
100
AcDbBlockEnd
0
ENDSEC
0
SECTION
2
ENTITIES
0
LWPOLYLINE
5
100
100
AcDbEntity
8
0
100
AcDbPolyline
90
6
70
1
43
0.0
10
-1.8000000000000149
20
1.8754330708661304
10
1.7999999999999989
20
1.8754330708661304
10
1.7999999999999989
20
2.9899999997526434
42
0.41421356237309481
10
1.4999999999999991
20
3.2899999997526437
10
-1.4999999999999818
20
3.2899999997526437
42
0.41421356237308654
10
-1.7999999999999821
20
2.9899999997526523
0
LWPOLYLINE
5
101
100
AcDbEntity
8
0
100
AcDbPolyline
90
4
70
1
43
0.0
10
-1.884166666666667
20
1.5304330708661309
10
-1.1225000000000005
20
1.5304330708661309
10
-1.1225000000000005
20
1.7804330708661309
10
-1.884166666666667
20
1.7804330708661309
0
CIRCLE
5
102
100
AcDbEntity
8
0
100
AcDbCircle
10
0.75166666666666582
20
-0.12000000000000006
30
0
40
0.047000000000000014
0
CIRCLE
5
103
100
AcDbEntity
8
0
100
AcDbCircle
10
-0.75166666666666715
20
-0.12000000000000006
30
0
40
0.046999999999999834
0
CIRCLE
5
104
100
AcDbEntity
8
0
100
AcDbCircle
10
-0.75166666666666715
20
1.6554330708661307
30
0
40
0.046999999999999834
0
CIRCLE
5
105
100
AcDbEntity
8
0
100
AcDbCircle
10
-2.374999999999988
20
2.4965833332096556
30
0
40
0.046999999999999834
0
CIRCLE
5
106
100
AcDbEntity
8
0
100
AcDbCircle
10
0.75166666666666582
20
3.8649999997526434
30
0
40
0.047000000000000014
0
CIRCLE
5
107
100
AcDbEntity
8
0
100
AcDbCircle
10
0.75166666666666571
20
1.6554330708661307
30
0
40
0.047000000000000014
0
CIRCLE
5
108
100
AcDbEntity
8
0
100
AcDbCircle
10
2.3749999999999862
20
2.4965833332096561
30
0
40
0.047000000000000014
0
LWPOLYLINE
5
109
100
AcDbEntity
8
0
100
AcDbPolyline
90
4
70
1
43
0.0
10
1.1224999999999992
20
1.5304330708661309
10
1.8841666666666657
20
1.5304330708661309
10
1.8841666666666657
20
1.7804330708661309
10
1.1224999999999992
20
1.7804330708661309
0
LWPOLYLINE
5
110
100
AcDbEntity
8
0
100
AcDbPolyline
90
4
70
1
43
0.0
10
-0.38083333333333397
20
1.5304330708661309
10
0.38083333333333258
20
1.5304330708661309
10
0.38083333333333258
20
1.7804330708661309
10
-0.38083333333333397
20
1.7804330708661309
0
CIRCLE
5
111
100
AcDbEntity
8
0
100
AcDbCircle
10
-0.75166666666666715
20
3.8649999997526434
30
0
40
0.046999999999999834
0
LINE
5
112
100
AcDbEntity
8
0
100
AcDbLine
10
0.38083333333333258
20
-3.4967654318902565e-16
30
0
11
0.38083333333333258
21
-0.24000000000000013
31
0
0
LINE
5
113
100
AcDbEntity
8
0
100
AcDbLine
10
0.38083333333333258
20
-0.24000000000000013
30
0
11
1.1224999999999992
21
-0.24000000000000013
31
0
0
LINE
5
114
100
AcDbEntity
8
0
100
AcDbLine
10
1.1224999999999992
20
-0.24000000000000013
30
0
11
1.1224999999999992
21
0
31
0
0
LINE
5
115
100
AcDbEntity
8
0
100
AcDbLine
10
1.1224999999999992
20
0
30
0
11
1.8841666666666657
21
-3.4967654318902565e-16
31
0
0
LINE
5
116
100
AcDbEntity
8
0
100
AcDbLine
10
1.8841666666666657
20
-3.4967654318902565e-16
30
0
11
1.8841666666666657
21
-0.24000000000000013
31
0
0
LINE
5
117
100
AcDbEntity
8
0
100
AcDbLine
10
1.8841666666666657
20
-0.24000000000000013
30
0
11
2.4950000000000014
21
-0.24000000000000013
31
0
0
LINE
5
118
100
AcDbEntity
8
0
100
AcDbLine
10
2.4950000000000014
20
-0.24000000000000013
30
0
11
2.494999999999981
21
0.31199999987632371
31
0
0
LINE
5
119
100
AcDbEntity
8
0
100
AcDbLine
10
2.494999999999981
20
0.31199999987632371
30
0
11
2.2549999999999812
21
0.31199999987632332
31
0
0
LINE
5
120
100
AcDbEntity
8
0
100
AcDbLine
10
2.2549999999999812
20
0.31199999987632332
30
0
11
2.254999999999991
21
0.93616666654299008
31
0
0
LINE
5
121
100
AcDbEntity
8
0
100
AcDbLine
10
2.254999999999991
20
0.93616666654299008
30
0
11
2.4949999999999806
21
0.93616666654299008
31
0
0
LINE
5
122
100
AcDbEntity
8
0
100
AcDbLine
10
2.4949999999999806
20
0.93616666654299008
30
0
11
2.494999999999981
21
1.5603333332096572
31
0
0
LINE
5
123
100
AcDbEntity
8
0
100
AcDbLine
10
2.494999999999981
20
1.5603333332096572
30
0
11
2.2549999999999812
21
1.5603333332096567
31
0
0
LINE
5
124
100
AcDbEntity
8
0
100
AcDbLine
10
2.2549999999999812
20
1.5603333332096567
30
0
11
2.254999999999991
21
2.1844999998763237
31
0
0
LINE
5
125
100
AcDbEntity
8
0
100
AcDbLine
10
2.254999999999991
20
2.1844999998763237
30
0
11
2.4949999999999806
21
2.1844999998763237
31
0
0
LINE
5
126
100
AcDbEntity
8
0
100
AcDbLine
10
2.4949999999999806
20
2.1844999998763237
30
0
11
2.494999999999981
21
2.8086666665429907
31
0
0
LINE
5
127
100
AcDbEntity
8
0
100
AcDbLine
10
2.494999999999981
20
2.8086666665429907
30
0
11
2.2549999999999812
21
2.8086666665429902
31
0
0
LINE
5
128
100
AcDbEntity
8
0
100
AcDbLine
10
2.2549999999999812
20
2.8086666665429902
30
0
11
2.254999999999991
21
3.4328333332096572
31
0
0
LINE
5
129
100
AcDbEntity
8
0
100
AcDbLine
10
2.254999999999991
20
3.4328333332096572
30
0
11
2.4949999999999806
21
3.4328333332096572
31
0
0
LINE
5
130
100
AcDbEntity
8
0
100
AcDbLine
10
2.4949999999999806
20
3.4328333332096572
30
0
11
2.4950000000000023
21
3.9849999997526218
31
0
0
LINE
5
131
100
AcDbEntity
8
0
100
AcDbLine
10
2.4950000000000023
20
3.9849999997526218
30
0
11
1.8841666666666657
21
3.9849999997526435
31
0
0
LINE
5
132
100
AcDbEntity
8
0
100
AcDbLine
10
1.8841666666666657
20
3.9849999997526435
30
0
11
1.8841666666666657
21
3.7449999997526442
31
0
0
LINE
5
133
100
AcDbEntity
8
0
100
AcDbLine
10
1.8841666666666657
20
3.7449999997526442
30
0
11
1.1224999999999992
21
3.7449999997526433
31
0
0
LINE
5
134
100
AcDbEntity
8
0
100
AcDbLine
10
1.1224999999999992
20
3.7449999997526433
30
0
11
1.1224999999999992
21
3.9849999997526435
31
0
0
LINE
5
135
100
AcDbEntity
8
0
100
AcDbLine
10
1.1224999999999992
20
3.9849999997526435
30
0
11
0.38083333333333258
21
3.9849999997526435
31
0
0
LINE
5
136
100
AcDbEntity
8
0
100
AcDbLine
10
0.38083333333333258
20
3.9849999997526435
30
0
11
0.38083333333333258
21
3.7449999997526442
31
0
0
LINE
5
137
100
AcDbEntity
8
0
100
AcDbLine
10
0.38083333333333258
20
3.7449999997526442
30
0
11
-0.38083333333333397
21
3.7449999997526433
31
0
0
LINE
5
138
100
AcDbEntity
8
0
100
AcDbLine
10
-0.38083333333333397
20
3.7449999997526433
30
0
11
-0.38083333333333397
21
3.9849999997526435
31
0
0
LINE
5
139
100
AcDbEntity
8
0
100
AcDbLine
10
-0.38083333333333397
20
3.9849999997526435
30
0
11
-1.1225000000000005
21
3.9849999997526435
31
0
0
LINE
5
140
100
AcDbEntity
8
0
100
AcDbLine
10
-1.1225000000000005
20
3.9849999997526435
30
0
11
-1.1225000000000005
21
3.7449999997526442
31
0
0
LINE
5
141
100
AcDbEntity
8
0
100
AcDbLine
10
-1.1225000000000005
20
3.7449999997526442
30
0
11
-1.884166666666667
21
3.7449999997526433
31
0
0
LINE
5
142
100
AcDbEntity
8
0
100
AcDbLine
10
-1.884166666666667
20
3.7449999997526433
30
0
11
-1.884166666666667
21
3.9849999997526435
31
0
0
LINE
5
143
100
AcDbEntity
8
0
100
AcDbLine
10
-1.884166666666667
20
3.9849999997526435
30
0
11
-2.4950000000000001
21
3.984999999752644
31
0
0
LINE
5
144
100
AcDbEntity
8
0
100
AcDbLine
10
-2.4950000000000001
20
3.984999999752644
30
0
11
-2.4949999999999806
21
3.4328333332096572
31
0
0
LINE
5
145
100
AcDbEntity
8
0
100
AcDbLine
10
-2.4949999999999806
20
3.4328333332096572
30
0
11
-2.254999999999991
21
3.4328333332096568
31
0
0
LINE
5
146
100
AcDbEntity
8
0
100
AcDbLine
10
-2.254999999999991
20
3.4328333332096568
30
0
11
-2.2549999999999812
21
2.8086666665429898
31
0
0
LINE
5
147
100
AcDbEntity
8
0
100
AcDbLine
10
-2.2549999999999812
20
2.8086666665429898
30
0
11
-2.494999999999981
21
2.8086666665429902
31
0
0
LINE
5
148
100
AcDbEntity
8
0
100
AcDbLine
10
-2.494999999999981
20
2.8086666665429902
30
0
11
-2.4949999999999806
21
2.1844999998763237
31
0
0
LINE
5
149
100
AcDbEntity
8
0
100
AcDbLine
10
-2.4949999999999806
20
2.1844999998763237
30
0
11
-2.254999999999991
21
2.1844999998763233
31
0
0
LINE
5
150
100
AcDbEntity
8
0
100
AcDbLine
10
-2.254999999999991
20
2.1844999998763233
30
0
11
-2.2549999999999812
21
1.5603333332096565
31
0
0
LINE
5
151
100
AcDbEntity
8
0
100
AcDbLine
10
-2.2549999999999812
20
1.5603333332096565
30
0
11
-2.494999999999981
21
1.5603333332096567
31
0
0
LINE
5
152
100
AcDbEntity
8
0
100
AcDbLine
10
-2.494999999999981
20
1.5603333332096567
30
0
11
-2.4949999999999806
21
0.93616666654299008
31
0
0
LINE
5
153
100
AcDbEntity
8
0
100
AcDbLine
10
-2.4949999999999806
20
0.93616666654299008
30
0
11
-2.254999999999991
21
0.93616666654298974
31
0
0
LINE
5
154
100
AcDbEntity
8
0
100
AcDbLine
10
-2.254999999999991
20
0.93616666654298974
30
0
11
-2.2549999999999812
21
0.31199999987632299
31
0
0
LINE
5
155
100
AcDbEntity
8
0
100
AcDbLine
10
-2.2549999999999812
20
0.31199999987632299
30
0
11
-2.494999999999981
21
0.31199999987632332
31
0
0
LINE
5
156
100
AcDbEntity
8
0
100
AcDbLine
10
-2.494999999999981
20
0.31199999987632332
30
0
11
-2.4950000000000001
21
0
31
0
0
LINE
5
157
100
AcDbEntity
8
0
100
AcDbLine
10
-2.4950000000000001
20
-0.24000000000000082
30
0
11
-1.884166666666667
21
-0.24000000000000013
31
0
0
LINE
5
158
100
AcDbEntity
8
0
100
AcDbLine
10
-1.884166666666667
20
-0.24000000000000013
30
0
11
-1.884166666666667
21
0
31
0
0
LINE
5
159
100
AcDbEntity
8
0
100
AcDbLine
10
-1.884166666666667
20
0
30
0
11
-1.1225000000000005
21
-3.4967654318902565e-16
31
0
0
LINE
5
160
100
AcDbEntity
8
0
100
AcDbLine
10
-1.1225000000000005
20
-3.4967654318902565e-16
30
0
11
-1.1225000000000005
21
-0.24000000000000013
31
0
0
LINE
5
161
100
AcDbEntity
8
0
100
AcDbLine
10
-1.1225000000000005
20
-0.24000000000000013
30
0
11
-0.38083333333333397
21
-0.24000000000000013
31
0
0
LINE
5
162
100
AcDbEntity
8
0
100
AcDbLine
10
-0.38083333333333397
20
-0.24000000000000013
30
0
11
-0.38083333333333397
21
0
31
0
0
LINE
5
163
100
AcDbEntity
8
0
100
AcDbLine
10
-0.38083333333333397
20
0
30
0
11
-0.29999999999999966
21
0
31
0
0
LINE
5
164
100
AcDbEntity
8
0
100
AcDbLine
10
-0.29999999999999966
20
0
30
0
11
-0.29999999999999966
21
0.24999999999999989
31
0
0
LINE
5
165
100
AcDbEntity
8
0
100
AcDbLine
10
-0.29999999999999966
20
0.24999999999999989
30
0
11
0.30000000000000032
21
0.24999999999999989
31
0
0
LINE
5
166
100
AcDbEntity
8
0
100
AcDbLine
10
0.30000000000000032
20
0.24999999999999989
30
0
11
0.30000000000000032
21
0
31
0
0
LINE
5
167
100
AcDbEntity
8
0
100
AcDbLine
10
0.30000000000000032
20
0
30
0
11
0.38083333333333258
21
-3.4967654318902565e-16
31
0
0
CIRCLE
5
168
100
AcDbEntity
8
0
100
AcDbCircle
10
-2.374999999999988
20
1.2484166665429877
30
0
40
0.046999999999999834
0
CIRCLE
5
169
100
AcDbEntity
8
0
100
AcDbCircle
10
2.3749999999999867
20
1.2484166665429877
30
0
40
0.047000000000000014
0
LINE
5
170
100
AcDbEntity
8
0
100
AcDbLine
10
-2.4950000000000001
20
0
30
0
11
-2.494999999999981
21
-0.00016666666666338757
31
0
0
LINE
5
171
100
AcDbEntity
8
0
100
AcDbLine
10
-2.494999999999981
20
-0.00016666666666338757
30
0
11
-2.4950000000000001
21
-0.24000000000000082
31
0
0
ENDSEC
0
SECTION
2
OBJECTS
0
DICTIONARY
5
C
100
AcDbDictionary
3
ACAD_GROUP
350
D
3
ACAD_MLINESTYLE
350
17
0
DICTIONARY
5
D
100
AcDbDictionary
0
DICTIONARY
5
1A
330
C
100
AcDbDictionary
0
DICTIONARY
5
17
100
AcDbDictionary
0
ENDSEC
0
EOF
